<svg id="Layer_1" data-name="Layer 1" xmlns="http://www.w3.org/2000/svg" xmlns:xlink="http://www.w3.org/1999/xlink" viewBox="0 0 841.89 595.28"><defs><style>.cls-1{fill:#fff;}.cls-2{fill:url(#linear-gradient);}.cls-3{fill:url(#linear-gradient-2);}.cls-4{fill:#00b5eb;}.cls-5{fill:#06f922;}.cls-6{fill:#19222d;}</style><linearGradient id="linear-gradient" x1="351.67" y1="293.65" x2="301.1" y2="269.17" gradientUnits="userSpaceOnUse"><stop offset="0" stop-color="#1c53a4"/><stop offset="1" stop-color="#00b5eb"/></linearGradient><linearGradient id="linear-gradient-2" x1="350.47" y1="300.94" x2="301.56" y2="326.34" xlink:href="#linear-gradient"/></defs><title>Delta.Exchange_Final_Logo</title><rect class="cls-1" width="841.89" height="595.28"/><polygon class="cls-2" points="286.97 279.84 322.56 297.64 358.16 279.84 286.97 244.25 286.97 279.84"/><polygon class="cls-3" points="286.97 315.43 286.97 351.03 358.16 315.43 322.56 297.64 286.97 315.43"/><polygon class="cls-4" points="358.16 315.43 358.16 279.84 322.56 297.64 358.16 315.43"/><polygon class="cls-5" points="286.97 279.84 286.97 315.43 251.38 297.64 286.97 279.84"/><path class="cls-6" d="M393.75,260.78h13.59a19.46,19.46,0,0,1,8.84,1.94,14.25,14.25,0,0,1,6,5.46,16.59,16.59,0,0,1,0,16.3,14.27,14.27,0,0,1-6,5.47,19.45,19.45,0,0,1-8.84,1.93H393.75ZM407.08,287a13.11,13.11,0,0,0,6-1.31,9.37,9.37,0,0,0,4-3.73,12,12,0,0,0,0-11.24,9.43,9.43,0,0,0-4-3.73,13.24,13.24,0,0,0-6-1.31h-7.55V287Z"/><path class="cls-6" d="M451.24,281.8H432.62a6.47,6.47,0,0,0,2.56,4.15,8.37,8.37,0,0,0,5.13,1.53,8.68,8.68,0,0,0,6.44-2.57l3,3.42a10.19,10.19,0,0,1-4.05,2.89,16.08,16.08,0,0,1-12.39-.58,11.19,11.19,0,0,1-4.6-4.33,13.07,13.07,0,0,1,0-12.53,11.16,11.16,0,0,1,4.37-4.33,12.75,12.75,0,0,1,6.31-1.56,12.47,12.47,0,0,1,6.2,1.53,10.9,10.9,0,0,1,4.26,4.31,13.08,13.08,0,0,1,1.54,6.42Q451.33,280.74,451.24,281.8Zm-16.42-7.89a6.59,6.59,0,0,0-2.24,4.2H446a6.55,6.55,0,0,0-2.18-4.18,6.63,6.63,0,0,0-4.53-1.6A6.71,6.71,0,0,0,434.82,273.91Z"/><path class="cls-6" d="M455.77,258.92h5.55v33h-5.55Z"/><path class="cls-6" d="M483.13,290.59a6.31,6.31,0,0,1-2.37,1.2,10.63,10.63,0,0,1-3,.4,8.4,8.4,0,0,1-6-2,7.87,7.87,0,0,1-2.13-5.95V272.78h-3.91v-4.44h3.91v-5.42h5.55v5.42h6.35v4.44h-6.35v11.28a3.74,3.74,0,0,0,.85,2.65,3.18,3.18,0,0,0,2.44.91,4.9,4.9,0,0,0,3.11-1Z"/><path class="cls-6" d="M503.9,270.4c1.85,1.68,2.78,4.2,2.78,7.58v13.9h-5.24V289a6.5,6.5,0,0,1-2.91,2.38,11.37,11.37,0,0,1-4.56.82,11.1,11.1,0,0,1-4.66-.91,7.28,7.28,0,0,1-3.09-2.53,6.39,6.39,0,0,1-1.09-3.67,6.27,6.27,0,0,1,2.38-5.13Q489.88,278,495,278h6.13v-.36a4.85,4.85,0,0,0-1.49-3.81,6.45,6.45,0,0,0-4.42-1.34,12.81,12.81,0,0,0-3.93.62,9.79,9.79,0,0,0-3.27,1.74l-2.18-4.05a13.6,13.6,0,0,1,4.49-2.17,19.74,19.74,0,0,1,5.55-.76Q501.13,267.89,503.9,270.4Zm-5.06,16.8a5.24,5.24,0,0,0,2.29-2.74v-2.75h-5.74q-4.78,0-4.79,3.15a2.83,2.83,0,0,0,1.2,2.4,5.51,5.51,0,0,0,3.33.89A7.24,7.24,0,0,0,498.84,287.2Z"/><path class="cls-6" d="M512.1,291.15a3.71,3.71,0,1,1,2.58,1A3.56,3.56,0,0,1,512.1,291.15Z"/><path class="cls-6" d="M415.21,332.41v2H393.75v-31.1h20.79v2H396v12.26h16.58v2H396v12.75Z"/><path class="cls-6" d="M437.11,334.46l-7.95-10.35-8,10.35h-2.53l9.2-11.95-8.71-11.24h2.53l7.47,9.64,7.46-9.64h2.49l-8.71,11.24,9.33,11.95Z"/><path class="cls-6" d="M446.84,333.12a10.79,10.79,0,0,1-4.18-4.19,13,13,0,0,1,0-12.18,10.68,10.68,0,0,1,4.18-4.17,12.21,12.21,0,0,1,6-1.49,11.65,11.65,0,0,1,5.09,1.09,9.19,9.19,0,0,1,3.71,3.17l-1.65,1.2A8,8,0,0,0,457,314a9.58,9.58,0,0,0-4.07-.86,9.69,9.69,0,0,0-4.86,1.22,8.67,8.67,0,0,0-3.38,3.44,11.31,11.31,0,0,0,0,10.22,8.61,8.61,0,0,0,3.38,3.44,9.59,9.59,0,0,0,4.86,1.23,9.43,9.43,0,0,0,4.07-.87,7.92,7.92,0,0,0,3.08-2.6l1.65,1.2a9.29,9.29,0,0,1-3.71,3.18,11.78,11.78,0,0,1-5.09,1.08A12,12,0,0,1,446.84,333.12Z"/><path class="cls-6" d="M484.3,313.62q2.54,2.53,2.54,7.29v13.55h-2.22V321.08a8.22,8.22,0,0,0-2-5.95,7.34,7.34,0,0,0-5.53-2,8.51,8.51,0,0,0-6.44,2.44,9.08,9.08,0,0,0-2.36,6.58v12.35h-2.22v-33h2.22v14.62a8.5,8.5,0,0,1,3.56-3.71,11.27,11.27,0,0,1,5.55-1.31A9.27,9.27,0,0,1,484.3,313.62Z"/><path class="cls-6" d="M508.58,313.29c1.54,1.46,2.31,3.62,2.31,6.46v14.71h-2.14v-4.13a7.68,7.68,0,0,1-3.24,3.17,10.68,10.68,0,0,1-5.11,1.13,9.41,9.41,0,0,1-6.11-1.82,6.29,6.29,0,0,1-.17-9.48q2.06-1.8,6.59-1.8h8v-1.87a6.54,6.54,0,0,0-1.76-4.93,7.14,7.14,0,0,0-5.13-1.69,12.45,12.45,0,0,0-4.42.8,11.21,11.21,0,0,0-3.58,2.14l-1.11-1.6a12.4,12.4,0,0,1,4.18-2.43,15.36,15.36,0,0,1,5.11-.86Q506.27,311.09,508.58,313.29Zm-3,18.19a8.19,8.19,0,0,0,3.05-3.86v-4.36h-7.91q-3.42,0-5,1.25a4.16,4.16,0,0,0-1.53,3.42A4.26,4.26,0,0,0,496,331.5a7.54,7.54,0,0,0,4.75,1.31A8.7,8.7,0,0,0,505.62,331.48Z"/><path class="cls-6" d="M534.48,313.62c1.68,1.69,2.53,4.12,2.53,7.29v13.55h-2.22V321.08a8.22,8.22,0,0,0-2-5.95,7.34,7.34,0,0,0-5.53-2,8.52,8.52,0,0,0-6.44,2.44,9.08,9.08,0,0,0-2.36,6.58v12.35h-2.22V311.27h2.13v5a8.81,8.81,0,0,1,3.58-3.82,11,11,0,0,1,5.62-1.38A9.31,9.31,0,0,1,534.48,313.62Z"/><path class="cls-6" d="M564.27,311.27V332q0,5.77-2.8,8.53c-1.86,1.84-4.68,2.75-8.44,2.75a18.51,18.51,0,0,1-6-1,11.94,11.94,0,0,1-4.58-2.71l1.2-1.69a12.52,12.52,0,0,0,4.18,2.49,15.14,15.14,0,0,0,5.2.88q4.62,0,6.84-2.19t2.22-6.82v-3.91a9.91,9.91,0,0,1-3.95,3.91,11.82,11.82,0,0,1-5.69,1.37,12.14,12.14,0,0,1-5.89-1.44,10.62,10.62,0,0,1-4.15-4,12,12,0,0,1,0-11.64,10.5,10.5,0,0,1,4.15-4,12.24,12.24,0,0,1,5.89-1.42,11.76,11.76,0,0,1,5.78,1.42,9.76,9.76,0,0,1,3.95,4v-5.24Zm-6.8,19.17a8.48,8.48,0,0,0,3.4-3.29,9.39,9.39,0,0,0,1.22-4.82,9.26,9.26,0,0,0-1.22-4.8,8.47,8.47,0,0,0-3.4-3.26,10.66,10.66,0,0,0-9.75,0,8.59,8.59,0,0,0-3.37,3.26,9.27,9.27,0,0,0-1.23,4.8,9.39,9.39,0,0,0,1.23,4.82,8.6,8.6,0,0,0,3.37,3.29,10.74,10.74,0,0,0,9.75,0Z"/><path class="cls-6" d="M590.47,323.39h-20a9.73,9.73,0,0,0,1.38,4.83,8.84,8.84,0,0,0,3.49,3.26,10.45,10.45,0,0,0,5,1.16,10.6,10.6,0,0,0,4.2-.83,8.06,8.06,0,0,0,3.22-2.42l1.29,1.47a10,10,0,0,1-3.8,2.8,13.27,13.27,0,0,1-11.13-.54,10.83,10.83,0,0,1-4.24-4.17,11.93,11.93,0,0,1-1.54-6.09,12.62,12.62,0,0,1,1.45-6.06,10.71,10.71,0,0,1,4-4.2,11.49,11.49,0,0,1,11.35,0,10.49,10.49,0,0,1,4,4.15,12.51,12.51,0,0,1,1.44,6Zm-15.42-9.26a8.31,8.31,0,0,0-3.13,3.07,10.05,10.05,0,0,0-1.36,4.46h17.78a9.29,9.29,0,0,0-1.34-4.44,8.6,8.6,0,0,0-7.55-4.18A8.94,8.94,0,0,0,575.05,314.13Z"/></svg>